<?xml version="1.0" encoding="utf-8"?>
<svg xmlns="http://www.w3.org/2000/svg" viewBox="-1269.624 -168.42 2952.88 789.336">
  <path d="M -837.27 -148.93 C -835.61 -148.93 -833.95 -148.93 -832.28 -148.94 C -827.73 -148.94 -823.18 -148.94 -818.63 -148.94 C -813.71 -148.94 -808.8 -148.95 -803.89 -148.95 C -794.26 -148.96 -784.64 -148.96 -775.02 -148.96 C -767.2 -148.96 -759.37 -148.96 -751.55 -148.97 C -729.37 -148.98 -707.18 -148.98 -684.99 -148.98 C -683.8 -148.98 -682.6 -148.98 -681.37 -148.98 C -680.17 -148.98 -678.97 -148.98 -677.74 -148.98 C -658.34 -148.98 -638.94 -148.99 -619.54 -149 C -599.61 -149.02 -579.68 -149.02 -559.75 -149.02 C -548.57 -149.02 -537.38 -149.03 -526.2 -149.04 C -516.67 -149.05 -507.15 -149.05 -497.63 -149.04 C -492.77 -149.04 -487.92 -149.04 -483.06 -149.05 C -478.61 -149.05 -474.16 -149.05 -469.71 -149.04 C -468.1 -149.04 -466.5 -149.04 -464.89 -149.05 C -447.85 -149.11 -431.88 -147.49 -418.57 -135.79 C -417.98 -135.29 -417.38 -134.79 -416.77 -134.28 C -407.89 -126.18 -403.28 -114.42 -398.49 -103.62 C -396.87 -99.98 -395.23 -96.344 -393.6 -92.713 C -393.27 -91.968 -392.93 -91.223 -392.59 -90.456 C -389.16 -82.861 -385.62 -75.324 -382.07 -67.791 C -377.07 -57.182 -372.15 -46.539 -367.32 -35.853 C -361.66 -23.342 -355.92 -10.87 -350.13 1.584 C -344.24 14.275 -338.37 26.977 -332.57 39.709 C -326.78 52.398 -320.94 65.06 -315.07 77.709 C -308.87 91.065 -302.71 104.437 -296.6 117.835 C -291.14 129.815 -285.61 141.767 -280.07 153.709 C -273.87 167.065 -267.71 180.437 -261.6 193.835 C -256.14 205.815 -250.61 217.767 -245.07 229.709 C -238.87 243.057 -232.71 256.422 -226.61 269.814 C -222.62 278.56 -218.61 287.293 -214.56 296.01 C -213.92 297.386 -213.92 297.386 -213.27 298.789 C -211.2 303.255 -209.12 307.719 -207.04 312.182 C -188.18 352.672 -188.18 352.672 -195.57 374.209 C -200.74 387.23 -209.03 396.838 -221.57 403.209 C -234.05 408.513 -246.51 408.357 -259.86 408.343 C -261.51 408.345 -263.16 408.347 -264.81 408.35 C -269.32 408.356 -273.83 408.356 -278.34 408.354 C -283.21 408.354 -288.09 408.36 -292.96 408.365 C -302.5 408.373 -312.04 408.376 -321.58 408.376 C -329.33 408.377 -337.09 408.379 -344.84 408.382 C -366.85 408.391 -388.85 408.395 -410.86 408.395 C -412.05 408.394 -413.23 408.394 -414.45 408.394 C -415.64 408.394 -416.83 408.394 -418.05 408.394 C -437.28 408.394 -456.52 408.403 -475.75 408.418 C -495.52 408.432 -515.28 408.439 -535.05 408.438 C -546.13 408.438 -557.23 408.44 -568.32 408.451 C -577.76 408.46 -587.2 408.462 -596.64 408.456 C -601.46 408.452 -606.27 408.452 -611.08 408.461 C -615.5 408.469 -619.91 408.467 -624.33 408.459 C -625.92 408.457 -627.51 408.459 -629.09 408.465 C -647.43 408.525 -664.5 407.169 -678.57 394.209 C -679.25 393.586 -679.92 392.964 -680.62 392.322 C -684.81 388.053 -687.66 383.437 -690.26 378.084 C -690.6 377.389 -690.95 376.693 -691.3 375.977 C -695.48 367.43 -699.46 358.789 -703.44 350.147 C -704.27 348.35 -705.1 346.554 -705.93 344.757 C -707.64 341.062 -709.35 337.365 -711.05 333.669 C -713.45 328.476 -715.84 323.286 -718.24 318.096 C -725.7 301.98 -733.11 285.849 -740.48 269.696 C -746.36 256.802 -752.32 243.941 -758.29 231.086 C -764.08 218.604 -769.83 206.104 -775.54 193.583 C -781 181.603 -786.52 169.652 -792.07 157.709 C -798.27 144.354 -804.43 130.981 -810.54 117.583 C -816 105.603 -821.52 93.652 -827.07 81.709 C -833.27 68.354 -839.43 54.981 -845.54 41.583 C -851 29.603 -856.53 17.652 -862.07 5.709 C -869.69 -10.714 -877.28 -27.152 -884.77 -43.636 C -886.64 -47.752 -888.52 -51.861 -890.41 -55.966 C -891.63 -58.597 -892.83 -61.232 -894.03 -63.868 C -894.85 -65.651 -895.67 -67.43 -896.5 -69.208 C -903.41 -84.445 -906.1 -98.646 -900.57 -114.79 C -895.4 -127.81 -887.11 -137.43 -874.57 -143.79 C -862.33 -148.93 -850.32 -148.94 -837.27 -148.93 Z" style="stroke-width: 1; fill: rgb(0, 18, 40); transform-box: fill-box; transform-origin: 50% 50%;"/>
  <path d="M -937.61 2.015 C -936.72 2.018 -935.84 2.02 -934.91 2.023 C -932.09 2.034 -929.26 2.06 -926.45 2.085 C -924.5 2.095 -922.59 2.104 -920.66 2.112 C -915.96 2.134 -911.25 2.169 -906.58 2.21 C -900.03 15.628 -893.66 29.109 -887.5 42.71 C -881.78 55.368 -875.97 67.987 -870.12 80.585 C -864.23 93.275 -858.36 105.978 -852.58 118.71 C -846.78 131.399 -840.95 144.061 -835.08 156.71 C -828.86 170.066 -822.71 183.438 -816.6 196.836 C -811.13 208.816 -805.6 220.768 -800.08 232.71 C -793.86 246.066 -787.71 259.438 -781.6 272.836 C -776.13 284.816 -770.6 296.768 -765.08 308.71 C -759.21 321.359 -753.35 334.021 -747.58 346.71 C -742 358.889 -736.44 371.056 -730.82 383.207 C -729.99 384.966 -729.2 386.725 -728.37 388.486 C -724.43 397.071 -720.43 405.631 -716.22 414.101 C -715.89 414.747 -715.59 415.394 -715.24 416.06 C -708.34 429.875 -698.09 437.244 -683.58 442.21 C -679.71 443.147 -676.1 443.339 -672.12 443.349 C -670.16 443.357 -670.16 443.357 -668.16 443.365 C -666.71 443.366 -665.25 443.367 -663.82 443.368 C -662.25 443.373 -660.72 443.378 -659.19 443.383 C -654.95 443.397 -650.71 443.404 -646.46 443.411 C -641.87 443.419 -637.32 443.432 -632.72 443.445 C -624.81 443.467 -616.89 443.485 -608.96 443.501 C -597.49 443.524 -586.05 443.552 -574.59 443.581 C -555.99 443.629 -537.42 443.672 -518.84 443.713 C -500.77 443.752 -482.71 443.794 -464.66 443.838 C -463.53 443.841 -462.42 443.843 -461.28 443.846 C -455.71 443.86 -450.11 443.873 -444.53 443.887 C -398.21 444.001 -351.88 444.108 -305.56 444.21 C -304.31 446.716 -303.04 449.224 -301.78 451.731 C -301.44 452.43 -301.09 453.129 -300.72 453.849 C -297.48 460.3 -294.46 466.834 -291.51 473.423 C -290.68 475.307 -289.82 477.187 -288.97 479.068 C -288.43 480.293 -287.88 481.519 -287.32 482.745 C -286.84 483.822 -286.35 484.898 -285.85 486.007 C -280.9 498.282 -280.21 514.171 -285.25 526.577 C -292.4 540.8 -302 551.165 -317.31 556.351 C -325.5 558.778 -333.41 558.765 -341.85 558.711 C -343.56 558.715 -345.28 558.721 -347 558.728 C -351.69 558.743 -356.38 558.733 -361.09 558.718 C -366.16 558.707 -371.22 558.719 -376.3 558.728 C -386.22 558.742 -396.15 558.735 -406.08 558.72 C -417.64 558.703 -429.21 558.706 -440.77 558.71 C -461.41 558.715 -482.03 558.701 -502.67 558.677 C -522.69 558.653 -542.71 558.646 -562.72 558.656 C -584.54 558.668 -606.34 558.669 -628.16 558.655 C -630.47 558.654 -632.81 558.652 -635.11 558.65 C -636.26 558.65 -637.41 558.649 -638.59 558.648 C -646.64 558.643 -654.71 558.645 -662.75 558.65 C -672.59 558.654 -682.39 558.648 -692.22 558.629 C -697.22 558.619 -702.23 558.614 -707.23 558.622 C -711.84 558.629 -716.43 558.622 -721 558.604 C -722.66 558.6 -724.33 558.601 -725.97 558.607 C -742.87 558.669 -756.19 555.448 -769.06 543.98 C -776.45 535.857 -781.07 526.554 -785.58 516.648 C -786.22 515.237 -786.86 513.827 -787.51 512.417 C -789.56 508.022 -791.57 503.617 -793.58 499.21 C -793.88 498.512 -794.21 497.814 -794.53 497.095 C -797.34 490.923 -800.14 484.749 -802.95 478.571 C -807.23 469.08 -811.62 459.635 -816.08 450.21 C -821.08 439.6 -825.97 428.958 -830.83 418.273 C -836.47 405.762 -842.22 393.29 -848 380.835 C -853.89 368.145 -859.75 355.442 -865.58 342.71 C -871.35 330.021 -877.21 317.359 -883.08 304.71 C -889.26 291.355 -895.44 277.982 -901.55 264.584 C -906.99 252.604 -912.51 240.653 -918.08 228.71 C -924.26 215.355 -930.44 201.982 -936.55 188.584 C -941.99 176.604 -947.51 164.653 -953.08 152.71 C -959.78 138.265 -966.46 123.804 -973.05 109.31 C -973.69 107.911 -974.33 106.512 -974.96 105.112 C -975.25 104.439 -975.58 103.766 -975.87 103.072 C -977.84 98.732 -979.84 94.407 -981.94 90.089 C -982.44 89.001 -982.94 87.913 -983.44 86.792 C -984.34 84.834 -985.22 82.878 -986.22 80.927 C -992.62 67.187 -995.34 52.641 -990.62 37.866 C -984.34 21.854 -976 13.339 -960.88 5.507 C -953.32 2.547 -945.7 1.916 -937.61 2.015 Z" style="stroke-width: 1; fill: rgb(0, 18, 40); transform-box: fill-box; transform-origin: 50% 50%;"/>
  <path d="M 283.437 -73.789 C 284.998 -72.432 286.56 -71.078 288.125 -69.726 C 292.282 -66.019 295.919 -62.103 299.437 -57.789 C 300.271 -56.769 301.105 -55.75 301.965 -54.699 C 319.992 -32.367 343.437 1.486 343.437 31.211 C 314.397 31.211 285.357 31.211 255.437 31.211 C 251.477 23.291 251.477 23.291 247.437 15.211 C 227.818 -16.943 200.454 -39.553 163.437 -48.789 C 158.467 -49.977 153.484 -50.982 148.437 -51.789 C 147.292 -51.973 146.148 -52.158 144.968 -52.347 C 127.071 -54.481 106.935 -54.051 89.437 -49.789 C 88.64 -49.596 87.843 -49.402 87.021 -49.203 C 63.329 -43.22 43.617 -31.957 25.437 -15.789 C 24.781 -15.218 24.125 -14.647 23.449 -14.058 C -2.054 9.619 -13.865 47.221 -15.715 80.992 C -17.148 120.87 -5.355 159.132 20.875 189.524 C 44.317 214.649 79.3 229.971 113.557 231.335 C 151.371 232.204 188.198 224.732 217.437 199.211 C 218.403 198.39 219.368 197.569 220.363 196.723 C 236.179 182.989 245.58 166.191 254.437 147.211 C 283.807 147.211 313.177 147.211 343.437 147.211 C 338.732 180.147 319.955 211.454 298.437 236.211 C 297.959 236.764 297.481 237.316 296.988 237.886 C 258.181 282.373 201.852 305.227 143.812 309.961 C 141.355 310.075 138.896 310.155 136.437 310.211 C 135.585 310.232 134.734 310.252 133.856 310.273 C 73.496 311.525 12.58 295.113 -32.395 253.227 C -34.465 251.302 -36.592 249.474 -38.751 247.649 C -42.761 244.134 -46.171 240.322 -49.561 236.211 C -50.201 235.446 -50.201 235.446 -50.861 234.665 C -78.881 201.171 -95.191 161.531 -100.56 118.211 C -100.65 117.517 -100.75 116.822 -100.84 116.107 C -105.54 77.047 -99.83 36.711 -85.561 0.211 C -85.291 -0.482 -85.021 -1.176 -84.741 -1.89 C -71.071 -36.569 -45.771 -68.084 -15.563 -89.789 C -15.016 -90.191 -14.469 -90.593 -13.905 -91.007 C 11.735 -109.7 41.603 -121.17 72.437 -127.78 C 73.583 -128.04 73.583 -128.04 74.752 -128.29 C 147.419 -143.72 228.848 -124.65 283.437 -73.789 Z" style="stroke-width: 1; fill: rgb(0, 18, 40); transform-box: fill-box; transform-origin: 50% 50%;"/>
  <path d="M 1184.43 -19.789 C 1210.17 -19.789 1235.91 -19.789 1262.43 -19.789 C 1262.47 -7.459 1262.51 4.861 1262.54 17.571 C 1262.57 25.411 1262.61 33.251 1262.64 41.081 C 1262.69 53.511 1262.75 65.931 1262.78 78.361 C 1262.8 87.411 1262.83 96.461 1262.88 105.521 C 1262.9 110.301 1262.92 115.081 1262.93 119.871 C 1262.73 170.361 1262.73 170.361 1287.43 213.211 C 1298.42 222.971 1312.04 228.791 1326.43 231.211 C 1327.56 231.401 1327.56 231.401 1328.71 231.601 C 1350.39 234.641 1373.34 230.861 1391.43 218.211 C 1409.32 204.171 1418.74 184.221 1422.02 161.981 C 1422.8 154.791 1422.74 147.611 1422.75 140.391 C 1422.76 138.641 1422.77 136.881 1422.78 135.131 C 1422.81 130.401 1422.82 125.671 1422.84 120.951 C 1422.85 115.991 1422.88 111.041 1422.9 106.081 C 1422.95 96.721 1422.99 87.361 1423.02 77.991 C 1423.07 65.331 1423.13 52.661 1423.19 40.001 C 1423.28 20.071 1423.35 0.141 1423.43 -19.789 C 1449.5 -19.789 1475.57 -19.789 1502.43 -19.789 C 1502.48 20.021 1502.51 59.841 1502.53 99.651 C 1502.54 104.361 1502.54 109.081 1502.54 113.791 C 1502.54 115.201 1502.54 115.201 1502.54 116.631 C 1502.55 131.771 1502.57 146.911 1502.58 162.051 C 1502.6 177.621 1502.61 193.181 1502.62 208.751 C 1502.62 218.331 1502.63 227.921 1502.65 237.501 C 1502.66 244.101 1502.66 250.691 1502.66 257.291 C 1502.66 261.081 1502.66 264.871 1502.67 268.661 C 1502.8 315.321 1499.34 363.941 1466.43 400.211 C 1465.74 400.981 1465.74 400.981 1465.03 401.761 C 1439.76 429.342 1403.15 442.944 1366.43 446.209 C 1365.25 446.319 1364.07 446.428 1362.86 446.541 C 1324.83 449.569 1286.17 444.781 1252.43 426.209 C 1251.35 425.633 1250.28 425.057 1249.16 424.463 C 1219.37 407.921 1199.71 379.111 1189.43 347.211 C 1188.44 343.251 1187.45 339.291 1186.43 335.211 C 1212.5 335.211 1238.57 335.211 1265.43 335.211 C 1267.74 339.501 1270.05 343.791 1272.43 348.211 C 1285.56 366.521 1303.52 373.861 1325.08 377.681 C 1327.54 377.991 1329.95 378.121 1332.43 378.211 C 1333.08 378.231 1333.72 378.261 1334.39 378.291 C 1356.1 379.061 1378.53 376.481 1396.43 363.211 C 1397.14 362.711 1397.84 362.211 1398.57 361.701 C 1413.66 349.931 1419.88 329.181 1422.17 311.001 C 1423.09 301.241 1422.73 291.371 1422.62 281.581 C 1422.6 279.211 1422.59 276.831 1422.58 274.461 C 1422.55 268.711 1422.5 262.961 1422.43 257.211 C 1421.91 257.931 1421.4 258.651 1420.87 259.401 C 1412.32 271.271 1403.62 280.951 1391.43 289.211 C 1390.62 289.761 1389.81 290.311 1388.98 290.881 C 1361.78 308.311 1326.23 309.391 1295.43 303.211 C 1260.94 295.451 1230.49 276.931 1211 246.981 C 1186.81 208.741 1183.93 167.141 1184.13 123.021 C 1184.15 117.991 1184.15 112.951 1184.15 107.911 C 1184.16 98.411 1184.19 88.921 1184.22 79.421 C 1184.26 66.561 1184.27 53.701 1184.29 40.831 C 1184.32 20.621 1184.38 0.421 1184.43 -19.789 Z" style="stroke-width: 1; fill: rgb(0, 18, 40); transform-box: fill-box; transform-origin: 50% 50%;"/>
  <path d="M 662.027 -5.638 C 662.687 -5.278 663.347 -4.928 664.027 -4.558 C 672.889 0.312 680.852 5.702 688.482 12.312 C 689.953 13.562 689.953 13.562 691.455 14.822 C 725.428 44.002 743.371 86.689 746.332 130.376 C 748.961 177.139 737.523 223.094 705.485 258.683 C 676.719 290.005 635.65 308.205 592.837 310.541 C 567.397 311.657 542.453 307.911 519.578 296.577 C 518.962 296.275 518.346 295.974 517.712 295.662 C 508.051 290.837 500.07 284.773 492.105 277.626 C 491.33 276.937 490.555 276.248 489.757 275.538 C 484.162 270.321 480.522 265.006 475.825 258.675 C 475.49 317.922 475.154 377.168 474.808 438.21 C 448.618 438.21 422.427 438.21 395.443 438.21 C 395.376 398.957 395.32 359.703 395.288 320.449 C 395.284 315.804 395.279 311.159 395.275 306.514 C 395.275 305.59 395.274 304.665 395.273 303.713 C 395.26 288.783 395.236 273.855 395.208 258.926 C 395.18 243.582 395.162 228.239 395.156 212.896 C 395.152 203.446 395.139 193.995 395.114 184.543 C 395.097 178.043 395.093 171.544 395.097 165.044 C 395.099 161.306 395.096 157.568 395.08 153.83 C 394.874 104.908 405.483 59.012 440.213 22.292 C 441.486 20.932 441.486 20.932 442.785 19.552 C 497.026 -35.768 595.678 -41.698 662.027 -5.638 Z M 504.315 69.167 C 503.354 69.99 503.354 69.99 502.372 70.83 C 484.984 86.554 475.792 111.511 474.7 134.261 C 473.949 161.524 479.944 188.203 499.228 208.805 C 499.875 209.507 500.521 210.209 501.188 210.932 C 518.256 228.568 542.41 236.568 566.697 237.917 C 594.653 238.454 619.999 229.224 640.251 210.328 C 659.488 190.435 666.679 163.824 666.316 137.077 C 665.629 115.125 658.298 93.972 643.712 77.146 C 643.132 76.422 642.553 75.699 641.956 74.953 C 626.728 56.754 602.648 47.842 579.343 45.542 C 552.127 43.312 524.591 50.832 504.315 69.167 Z" style="stroke-width: 1; fill: rgb(0, 18, 40); transform-box: fill-box; transform-origin: 50% 50%;"/>
  <path d="M 1070.81 14.773 C 1072.7 16.573 1074.57 18.383 1076.43 20.213 C 1077.27 21.033 1078.11 21.863 1078.97 22.713 C 1109.47 54.473 1121.86 99.204 1121.66 142.274 C 1121.66 144.024 1121.66 145.764 1121.66 147.514 C 1121.66 152.204 1121.65 156.884 1121.63 161.574 C 1121.62 166.494 1121.62 171.414 1121.62 176.334 C 1121.61 185.614 1121.59 194.904 1121.57 204.194 C 1121.55 214.784 1121.54 225.367 1121.53 235.952 C 1121.51 257.705 1121.47 279.458 1121.43 301.211 C 1098 301.211 1074.57 301.211 1050.43 301.211 C 1050.1 282.071 1049.77 262.931 1049.43 243.211 C 1046.79 248.161 1044.15 253.111 1041.43 258.211 C 1020.65 287.467 992.62 303.123 957.438 309.211 C 953.753 309.789 950.165 310.098 946.438 310.211 C 945.774 310.232 945.11 310.252 944.426 310.273 C 899.575 311.455 856.956 296.602 824.025 265.775 C 790.81 233.707 777.113 189.544 776.188 144.214 C 776.793 112.804 782.914 81.784 798.438 54.213 C 798.785 53.583 799.131 52.943 799.488 52.293 C 804.476 43.243 810.218 35.353 817.126 27.683 C 818.355 26.303 819.554 24.903 820.751 23.493 C 826.1 17.293 831.934 12.173 838.438 7.213 C 839.453 6.423 840.467 5.623 841.512 4.813 C 866.271 -14.017 896.676 -24.527 927.438 -27.787 C 928.441 -27.897 929.444 -28.007 930.477 -28.127 C 981.368 -32.897 1032.5 -19.867 1070.81 14.773 Z M 887.438 66.213 C 886.478 66.973 885.517 67.733 884.528 68.523 C 866.897 83.254 858.152 107.334 855.719 129.544 C 853.587 157.334 860.094 184.894 878.188 206.524 C 894.935 225.697 918.441 235.257 943.438 237.211 C 967.629 238.558 992.464 232.25 1011.1 216.324 C 1011.87 215.624 1012.64 214.924 1013.43 214.214 C 1014.26 213.474 1015.09 212.734 1015.95 211.974 C 1032.89 196.074 1042.4 172.754 1043.56 149.694 C 1044.38 120.924 1038.89 95.384 1019.43 73.213 C 1018.43 72.073 1018.43 72.073 1017.42 70.903 C 1000.56 52.863 976.566 45.583 952.544 44.023 C 928.773 43.453 905.565 50.663 887.438 66.213 Z" style="stroke-width: 1; fill: rgb(0, 18, 40); transform-box: fill-box; transform-origin: 50% 50%;"/>
</svg>