<?xml version="1.0" encoding="UTF-8"?>
<svg version="1.1" xmlns="http://www.w3.org/2000/svg" width="2495" height="707">
<path d="M0 0 C1.66151026 -0.00186993 3.32302007 -0.00417136 4.9845292 -0.00686532 C9.53586698 -0.01296716 14.08718634 -0.01285164 18.63852727 -0.01167095 C23.55275782 -0.01146653 28.46698252 -0.01698955 33.38121033 -0.02172852 C43.00337582 -0.03002655 52.62553518 -0.03278297 62.24770395 -0.03334089 C70.07013754 -0.03381642 77.89256911 -0.03587297 85.71500206 -0.03904152 C107.90206574 -0.04784546 130.08912458 -0.05246125 152.27619002 -0.05171105 C153.47170793 -0.05167109 154.66722583 -0.05163113 155.89897156 -0.05158997 C157.09595207 -0.05154909 158.29293259 -0.0515082 159.52618524 -0.05146609 C178.92679378 -0.05105959 198.32738291 -0.06063057 217.72798584 -0.07472833 C237.65722879 -0.08909578 257.58646227 -0.09599833 277.51571053 -0.09513456 C288.70094541 -0.09480273 299.88615994 -0.09754339 311.07139015 -0.10831261 C320.59395197 -0.11742241 330.11648421 -0.11958887 339.63904849 -0.11280318 C344.49518235 -0.10954054 349.35125948 -0.10947213 354.20738792 -0.11815643 C358.65795855 -0.12603347 363.10842756 -0.12457771 367.55899575 -0.1158723 C369.16390988 -0.11433998 370.76883164 -0.11614332 372.37373678 -0.12173238 C389.41277466 -0.17711255 405.38381805 1.43949159 418.69902039 13.13371277 C419.29198914 13.63386902 419.88495789 14.13402527 420.49589539 14.64933777 C429.37959245 22.74686695 433.98917417 34.51195361 438.77885437 45.3099823 C440.39417912 48.95035598 442.03238864 52.58044151 443.66777039 56.21183777 C444.00248352 56.95647278 444.33719666 57.70110779 444.68205261 58.4683075 C448.10278192 66.0636538 451.64434849 73.6003777 455.19902039 81.13371277 C460.198496 91.74289888 465.11402653 102.38607764 469.94902039 113.07121277 C475.61042518 125.58221611 481.35175845 138.05427151 487.13652039 150.50871277 C493.03043451 163.19916615 498.89506605 175.90185618 504.69902039 188.63371277 C510.48396668 201.32302553 516.32644346 213.98472343 522.19902039 226.63371277 C528.39959414 239.98917704 534.56009117 253.36172395 540.66825867 266.75968933 C546.13142331 278.73968773 551.65443967 290.69119703 557.19902039 302.63371277 C563.39959414 315.98917704 569.56009117 329.36172395 575.66825867 342.75968933 C581.13142331 354.73968773 586.65443967 366.69119703 592.19902039 378.63371277 C598.39630057 391.98208299 604.55552107 405.34665292 610.65818787 418.73854065 C614.64448113 427.48454357 618.65757543 436.21744092 622.70683289 444.93449402 C623.34573456 446.31029129 623.34573456 446.31029129 623.99754333 447.71388245 C626.07199202 452.17950868 628.14918029 456.64383413 630.23027039 461.10636902 C649.08313041 501.59672521 649.08313041 501.59672521 641.69902039 523.13371277 C636.53058577 536.15419229 628.23821442 545.76244661 615.69902039 552.13371277 C603.21490502 557.43784469 590.76012414 557.28183718 577.40513611 557.26742554 C575.75656258 557.26929599 574.10798949 557.27159763 572.4594171 557.27429086 C567.94840458 557.28038623 563.43741064 557.28027794 558.92639494 557.27909648 C554.05372554 557.27889191 549.18106202 557.28441667 544.30839539 557.28915405 C534.76924952 557.29744863 525.23010984 557.30020835 515.69096068 557.30076643 C507.9348344 557.30124213 500.17871016 557.3032996 492.42258453 557.30646706 C470.41757291 557.3152702 448.41256615 557.31988694 426.40755275 557.31913658 C425.22208668 557.31909663 424.03662061 557.31905667 422.81523132 557.3190155 C421.62831278 557.31897462 420.44139423 557.31893374 419.21850845 557.31889162 C399.98421097 557.3184852 380.74993306 557.32805475 361.51564124 557.34215387 C341.75133878 557.35652684 321.98704585 557.36342355 302.22273803 557.36256009 C291.1324695 557.36222845 280.04222151 557.36496111 268.9519577 557.37573814 C259.50962643 557.38485523 250.06732499 557.38700844 240.62499121 557.38022872 C235.81113301 557.3769697 230.99733202 557.37688451 226.18347931 557.38558197 C221.76923534 557.39347515 217.35509369 557.39198691 212.94085214 557.38329784 C211.35140999 557.38176904 209.76196011 557.38355538 208.1725271 557.38915791 C189.83840017 557.44945801 172.76709141 556.09323036 158.69902039 543.13371277 C158.02226257 542.51109558 157.34550476 541.88847839 156.64823914 541.24699402 C152.46019708 536.97763076 149.60689391 532.36125099 147.00761414 527.00871277 C146.66515656 526.31326859 146.32269897 525.6178244 145.96986389 524.90130615 C141.78666799 516.35465011 137.80458266 507.71350306 133.82402039 499.07121277 C132.99439755 497.27472852 132.164559 495.47834389 131.33451843 493.68205261 C129.62731727 489.98640351 127.92158748 486.29008079 126.21708679 482.59318542 C123.82275974 477.40058995 121.42351787 472.21027786 119.02323914 467.02043152 C111.57207865 450.90465212 104.15471855 434.77402408 96.78608704 418.62034607 C90.90275005 405.7262206 84.94918354 392.86529117 78.98103333 380.01023865 C73.1872887 367.52891973 67.43797906 355.02838585 61.7297821 342.50773621 C56.26661746 330.5277378 50.7436011 318.57622851 45.19902039 306.63371277 C38.99844663 293.2782485 32.8379496 279.90570158 26.7297821 266.50773621 C21.26661746 254.5277378 15.7436011 242.57622851 10.19902039 230.63371277 C3.99844663 217.2782485 -2.1620504 203.90570158 -8.2702179 190.50773621 C-13.73338412 178.52773432 -19.25683944 166.57643542 -24.80097961 154.63371277 C-32.42288298 138.2109882 -40.00818267 121.77235244 -47.49786377 105.28884888 C-49.36884506 101.17308029 -51.25243739 97.06339737 -53.14637756 92.95814514 C-54.35804097 90.32710801 -55.56120014 87.69224019 -56.76246643 85.05644226 C-57.57817704 83.27338066 -58.40395534 81.49493519 -59.23017883 79.71672058 C-66.14486132 64.47960295 -68.83622355 50.27817425 -63.30097961 34.13371277 C-58.13448629 21.11812383 -49.84111705 11.49685943 -37.30097961 5.13371277 C-25.0675536 -0.00401288 -13.05066788 -0.01393597 0 0 Z " fill="#FFFFFF" transform="translate(155.3009796142578,-0.1337127685546875)"/>
<path d="M0 0 C0.89588837 0.0028299 1.79177673 0.00565979 2.71481323 0.00857544 C5.53658214 0.0196441 8.35801683 0.0447224 11.1796875 0.0703125 C13.10937037 0.08035956 15.03905829 0.08948236 16.96875 0.09765625 C21.6641885 0.11953956 26.35938162 0.15397498 31.0546875 0.1953125 C37.59623514 13.61316042 43.96848492 27.09379231 50.1171875 40.6953125 C55.83936183 53.35308626 61.63953483 65.97232671 67.4921875 78.5703125 C73.38637477 91.26063771 79.25073413 103.96345804 85.0546875 116.6953125 C90.83963379 129.38462527 96.68211058 142.04632317 102.5546875 154.6953125 C108.75526126 168.05077677 114.91575829 181.42332369 121.02392578 194.82128906 C126.48709042 206.80128747 132.01010678 218.75279676 137.5546875 230.6953125 C143.75526126 244.05077677 149.91575829 257.42332369 156.02392578 270.82128906 C161.48709042 282.80128747 167.01010678 294.75279676 172.5546875 306.6953125 C178.42726832 319.34431024 184.26871881 332.00646113 190.0546875 344.6953125 C195.61098109 356.8743143 201.19318184 369.04115058 206.81103516 381.19189453 C207.62407918 382.95109578 208.4362889 384.71068292 209.24755859 386.47070312 C213.20593441 395.05577357 217.20483156 403.61660926 221.40625 412.0859375 C221.72489014 412.73241745 222.04353027 413.3788974 222.37182617 414.04496765 C229.29591433 427.85971368 239.54575014 435.22902843 254.0546875 440.1953125 C257.91965802 441.1324355 261.52272364 441.32464323 265.49520588 441.3339777 C267.45909857 441.34218937 267.45909857 441.34218937 269.46266586 441.35056692 C270.91393802 441.35164307 272.36521026 441.35262778 273.81648254 441.35353088 C275.35934966 441.35809746 276.90221555 441.36309763 278.44507998 441.36849445 C282.68656757 441.38207403 286.92804714 441.3894934 291.16955078 441.39592111 C295.74279398 441.40392583 300.3160205 441.41762337 304.88925171 441.43063354 C312.8133015 441.45239526 320.73735297 441.47054087 328.66141701 441.48623848 C340.11831891 441.50893987 351.57520236 441.53708234 363.0320886 441.56655776 C381.61961016 441.61423035 400.20713927 441.65749545 418.79467773 441.69799805 C436.85197538 441.73735466 454.90926631 441.77878129 472.96655273 441.82299805 C474.07938847 441.82572232 475.1922242 441.82844659 476.33878223 441.83125342 C481.92148772 441.84493292 487.50419311 441.85865319 493.08689845 441.87239373 C539.40948081 441.98635329 585.73207769 442.09316381 632.0546875 442.1953125 C633.31538567 444.70168673 634.57440706 447.20888089 635.83251953 449.71655273 C636.18429764 450.415494 636.53607574 451.11443527 636.89851379 451.83455658 C640.13209821 458.28530241 643.16097052 464.81916024 646.10253906 471.40795898 C646.94512261 473.29233192 647.79655771 475.17254856 648.6484375 477.05273438 C649.19844512 478.27840883 649.7479441 479.50431169 650.296875 480.73046875 C650.7801123 481.8069165 651.26334961 482.88336426 651.76123047 483.99243164 C656.71847409 496.26764476 657.41567651 512.15613957 652.37890625 524.5625 C645.22532382 538.78525681 635.61921455 549.15044836 620.30279732 554.33586216 C612.12033802 556.76330114 604.21015277 556.74990845 595.77243042 556.69651794 C594.0531287 556.70041758 592.33383022 556.70606332 590.61453927 556.71328884 C585.92197644 556.72796594 581.22975184 556.71790863 576.53720021 556.70355213 C571.46421662 556.69240211 566.39127891 556.70439816 561.31829834 556.71339417 C551.39350603 556.72730064 541.46884128 556.71978988 531.54405509 556.70471858 C519.97980559 556.68782832 508.4155876 556.6910725 496.85132958 556.69481266 C476.21547654 556.70068636 455.5796846 556.68653819 434.94384766 556.66186523 C414.93080354 556.6379397 394.91784101 556.63086405 374.90478516 556.64135742 C353.0960627 556.65277187 331.28737794 556.65469064 309.47865593 556.64025933 C307.1523877 556.63873353 304.82611947 556.63721317 302.49985123 556.63569832 C301.35536403 556.6349405 300.21087683 556.63418269 299.0317082 556.63340191 C290.97509097 556.62866366 282.9184906 556.63050723 274.86187363 556.63476372 C265.0421835 556.63969502 255.22257044 556.6336851 245.40289794 556.61386942 C240.3949489 556.60401183 235.3871171 556.59887583 230.37916183 556.60676193 C225.79120066 556.61383877 221.20347565 556.60696735 216.61554553 556.5891583 C214.95963002 556.58512684 213.30369285 556.58609172 211.64778553 556.59267717 C194.74062322 556.65413959 181.4455355 553.43281421 168.57421875 541.96484375 C161.18502359 533.84245713 156.56409753 524.53939648 152.0546875 514.6328125 C151.40376966 513.22229841 150.75205905 511.81214993 150.09960938 510.40234375 C148.06985417 506.00670381 146.06003545 501.60213108 144.0546875 497.1953125 C143.73677246 496.49722473 143.41885742 495.79913696 143.09130859 495.07989502 C140.28137426 488.90843726 137.47705125 482.73444682 134.68164062 476.55639648 C130.38355019 467.06552563 125.99512179 457.62033497 121.5546875 448.1953125 C116.55690472 437.58531061 111.63969511 426.94297803 106.8046875 416.2578125 C101.1432827 403.74680916 95.40194943 391.27475376 89.6171875 378.8203125 C83.72327338 366.12985912 77.85864184 353.42716908 72.0546875 340.6953125 C66.26974121 328.00599973 60.42726442 315.34430183 54.5546875 302.6953125 C48.35411374 289.33984823 42.19361671 275.96730131 36.08544922 262.56933594 C30.62228458 250.58933753 25.09926822 238.63782824 19.5546875 226.6953125 C13.35411374 213.33984823 7.19361671 199.96730131 1.08544922 186.56933594 C-4.37771583 174.58933663 -9.90084214 162.63788015 -15.4453125 150.6953125 C-22.15124711 136.25005701 -28.82228961 121.78967 -35.4206543 107.29492188 C-36.05771746 105.89580488 -36.694842 104.49671583 -37.33203125 103.09765625 C-37.63872238 102.42423187 -37.94541351 101.7508075 -38.26139832 101.05697632 C-40.24133426 96.71718464 -42.25061016 92.39235993 -44.27734375 88.07421875 C-44.78523438 86.98633057 -45.293125 85.89844238 -45.81640625 84.77758789 C-46.73235127 82.81894868 -47.65479591 80.86332576 -48.5859375 78.91186523 C-54.99080739 65.17234503 -57.72760612 50.62579589 -52.98828125 35.8515625 C-46.70100668 19.83902803 -38.38283599 11.32450294 -23.265625 3.4921875 C-15.6882156 0.53254054 -8.06803795 -0.0985349 0 0 Z " fill="#FFFFFF" transform="translate(54.9453125,150.8046875)"/>
<path d="M0 0 C1.56053766 1.3564276 3.12300963 2.71063333 4.6875 4.0625 C8.84493322 7.77008879 12.48180997 11.68577505 16 16 C16.83402344 17.01964844 17.66804688 18.03929688 18.52734375 19.08984375 C36.55443145 41.42238646 60 75.27479446 60 105 C30.96 105 1.92 105 -28 105 C-31.96 97.08 -31.96 97.08 -36 89 C-55.61942726 56.84593865 -82.98284394 34.23581738 -120 25 C-124.96984403 23.81197599 -129.95289966 22.80730374 -135 22 C-136.1446875 21.81566406 -137.289375 21.63132812 -138.46875 21.44140625 C-156.3664675 19.3079177 -176.50196172 19.73745934 -194 24 C-194.79728516 24.19335938 -195.59457031 24.38671875 -196.41601562 24.5859375 C-220.10864384 30.56911095 -239.81995269 41.83177978 -258 58 C-258.65613281 58.57105469 -259.31226563 59.14210938 -259.98828125 59.73046875 C-285.49134328 83.40753589 -297.30249188 121.00959534 -299.15234375 154.78125 C-300.58474698 194.65935601 -288.79238103 232.92137225 -262.5625 263.3125 C-239.12038344 288.43785085 -204.13725576 303.75986986 -169.87988281 305.12426758 C-132.06663043 305.99245641 -95.23958582 298.52071958 -66 273 C-65.03449219 272.17886719 -64.06898438 271.35773438 -63.07421875 270.51171875 C-47.25801185 256.77825258 -37.85727884 239.97988322 -29 221 C0.37 221 29.74 221 60 221 C55.29483514 253.93615405 36.51818014 285.24325244 15 310 C14.52175781 310.55268555 14.04351563 311.10537109 13.55078125 311.67480469 C-25.25633013 356.16166836 -81.58507226 379.01601707 -139.625 383.75 C-142.08209205 383.86421856 -144.54089726 383.94377797 -147 384 C-147.85174805 384.02046387 -148.70349609 384.04092773 -149.58105469 384.06201172 C-209.94145151 385.31391573 -270.85689595 368.90201566 -315.83203125 327.015625 C-317.90222547 325.09090389 -320.02953109 323.26252513 -322.1875 321.4375 C-326.19634083 317.92279064 -329.6125876 314.11049466 -333 310 C-333.64195312 309.23453857 -333.64195312 309.23453857 -334.296875 308.45361328 C-362.31569898 274.95995728 -378.63062964 235.31948892 -384 192 C-384.0942627 191.30567871 -384.18852539 190.61135742 -384.28564453 189.89599609 C-388.98022205 150.83610334 -383.26959938 110.49954542 -369 74 C-368.73106934 73.30648437 -368.46213867 72.61296875 -368.18505859 71.8984375 C-354.50287296 37.22016394 -329.20288038 5.70479747 -299 -16 C-298.4529541 -16.40202637 -297.9059082 -16.80405273 -297.34228516 -17.21826172 C-271.70178507 -35.91712041 -241.83441606 -47.38302836 -211 -54 C-209.8543457 -54.25088379 -209.8543457 -54.25088379 -208.68554688 -54.50683594 C-136.01838036 -69.93616581 -54.58964694 -50.86762556 0 0 Z " fill="#FFFFFF" transform="translate(1276,75)"/>
<path d="M0 0 C25.74 0 51.48 0 78 0 C78.03738281 12.32859375 78.07476563 24.6571875 78.11328125 37.359375 C78.14357864 45.19792765 78.17461849 53.03646588 78.20898438 60.875 C78.26332212 73.30011648 78.31474107 85.72519299 78.34643555 98.15039062 C78.36953984 107.20248932 78.4030744 116.25448173 78.44870156 125.3064959 C78.47246759 130.09144893 78.49130445 134.87629777 78.49761391 139.66130829 C78.30160135 190.1474267 78.30160135 190.1474267 103 233 C113.98513231 242.76264893 127.60554234 248.58157633 142 251 C143.12921875 251.19529297 143.12921875 251.19529297 144.28125 251.39453125 C165.96276006 254.42832464 188.90684923 250.65504084 207 238 C224.89121336 223.96465159 234.30814335 204.00762662 237.59101486 181.76821327 C238.37039988 174.58729473 238.30998754 167.40018242 238.31884766 160.18432617 C238.32816583 158.42873177 238.33833725 156.67314173 238.34928894 154.91755676 C238.37639026 150.19121377 238.39167883 145.46490025 238.40471697 140.73850036 C238.42043526 135.78439853 238.44719736 130.83035611 238.4727478 125.876297 C238.51938252 116.51277069 238.55620033 107.14923301 238.58942068 97.78565055 C238.63492946 85.12013933 238.69574601 72.45470198 238.75566864 59.78925228 C238.84955938 39.85953871 238.92312125 19.92980328 239 0 C265.07 0 291.14 0 318 0 C318.04419015 39.81396822 318.08108011 79.62791308 318.10213066 119.44189885 C318.10463171 124.1551136 318.10722039 128.8683283 318.10986328 133.58154297 C318.11065021 134.98886426 318.11065021 134.98886426 318.11145304 136.42461629 C318.12012723 151.56459776 318.13588054 166.70456385 318.15430559 181.84453623 C318.17308812 197.40945163 318.18413427 212.97435904 318.18817699 228.5392853 C318.19090483 238.12365289 318.19948218 247.70797699 318.21583293 257.29233117 C318.22650325 263.88776489 318.22957823 270.48317652 318.22700275 277.07861821 C318.22573687 280.86911767 318.22750867 284.65954182 318.23841095 288.45002747 C318.36561205 335.11392074 314.90748652 383.73460669 282 420 C281.30463135 420.76908691 281.30463135 420.76908691 280.59521484 421.55371094 C255.32670814 449.13290704 218.71640568 462.73537732 182 466 C180.82179688 466.10957031 179.64359375 466.21914063 178.4296875 466.33203125 C140.39875206 469.35997197 101.74056135 464.5723547 68 446 C66.92234375 445.42378906 65.8446875 444.84757812 64.734375 444.25390625 C34.93695841 427.71251986 15.2786585 398.89719393 5 367 C4.01 363.04 3.02 359.08 2 355 C28.07 355 54.14 355 81 355 C83.31 359.29 85.62 363.58 88 368 C101.13364499 386.30750513 119.0928155 393.64865267 140.64453125 397.46875 C143.10735823 397.77929911 145.51806703 397.91738365 148 398 C148.64598145 398.02578125 149.29196289 398.0515625 149.95751953 398.078125 C171.66765444 398.8481586 194.09915399 396.27380989 212 383 C212.70511719 382.50113281 213.41023438 382.00226563 214.13671875 381.48828125 C229.22848757 369.71729457 235.45311286 348.9758499 237.73815918 330.78759766 C238.65466483 321.0303375 238.29674891 311.16205343 238.1875 301.375 C238.17241296 299.00000857 238.15873173 296.62500777 238.14648438 294.25 C238.11382758 288.49979156 238.06395269 282.74994122 238 277 C237.4834082 277.72300293 236.96681641 278.44600586 236.43457031 279.19091797 C227.88589214 291.06672425 219.19185423 300.74578517 207 309 C206.19046875 309.55300781 205.3809375 310.10601562 204.546875 310.67578125 C177.34512526 328.10471693 141.79563506 329.1822692 111 323 C76.50796412 315.2425089 46.05958554 296.72727139 26.56420898 266.76928711 C2.37932416 228.5350113 -0.49930523 186.93556567 -0.30418181 142.81545067 C-0.28517678 137.77871324 -0.28364611 132.74196795 -0.28010559 127.7052002 C-0.27085402 118.20738627 -0.24633557 108.70967837 -0.21605712 99.21191072 C-0.17595906 86.3493085 -0.16000245 73.4866764 -0.14255047 60.62402725 C-0.11450784 40.41593905 -0.05469306 20.20807439 0 0 Z " fill="#FFFFFF" transform="translate(2177,129)"/>
<path d="M0 0 C0.64839844 0.35852051 1.29679687 0.71704102 1.96484375 1.08642578 C10.67527933 5.96556333 18.50085172 11.36698142 26 18 C27.44632813 19.24716797 27.44632813 19.24716797 28.921875 20.51953125 C62.31092329 49.76549223 79.94434741 92.56769728 82.85498047 136.36816406 C85.43835535 183.25163408 74.19832835 229.32541908 42.7109375 265.0078125 C14.43848681 296.41049904 -25.92377925 314.65835088 -68 317 C-93.0035674 318.11855326 -117.51798107 314.36238987 -140 303 C-140.60537598 302.69723145 -141.21075195 302.39446289 -141.83447266 302.08251953 C-151.32885107 297.24440763 -159.17176315 291.1644698 -167 284 C-167.76183594 283.3090625 -168.52367187 282.618125 -169.30859375 281.90625 C-174.80712989 276.67567371 -178.38406152 271.34691541 -183 265 C-183.33 324.4 -183.66 383.8 -184 445 C-209.74 445 -235.48 445 -262 445 C-262.06626242 405.64454037 -262.12160622 366.28913379 -262.15319599 326.93363425 C-262.15694765 322.27663823 -262.16083066 317.61964233 -262.16479492 312.96264648 C-262.16558185 312.03560782 -262.16636878 311.10856915 -262.16717956 310.1534384 C-262.18019738 295.18601608 -262.20383102 280.21862868 -262.23145839 265.25122701 C-262.25961386 249.86825932 -262.27619759 234.48530979 -262.28226548 219.10231739 C-262.286361 209.62693559 -262.29924787 200.15165255 -262.3237494 190.67630119 C-262.33973213 184.15937568 -262.34437235 177.64250046 -262.34050413 171.12555682 C-262.33860185 167.37792184 -262.34130419 163.63045817 -262.35761642 159.88285446 C-262.56013406 110.83405746 -252.13280594 64.81923802 -218 28 C-216.74896484 26.64261719 -216.74896484 26.64261719 -215.47265625 25.2578125 C-162.16442506 -30.21039565 -65.20858979 -36.15476259 0 0 Z M-155 75 C-155.94552734 75.82564453 -155.94552734 75.82564453 -156.91015625 76.66796875 C-173.99898628 92.4332903 -183.03344321 117.45401751 -184.10644531 140.26269531 C-184.84394708 167.59708617 -178.95232026 194.34537552 -160 215 C-159.36449219 215.70382812 -158.72898437 216.40765625 -158.07421875 217.1328125 C-141.29941238 234.81527373 -117.56029518 242.83483569 -93.69140625 244.1875 C-66.21643279 244.72556558 -41.30480499 235.47209257 -21.40234375 216.52734375 C-2.49530319 196.58252395 4.57148079 169.90299009 4.21484375 143.0859375 C3.53993977 121.07819898 -3.66561571 99.86950466 -18 83 C-18.56976562 82.27425781 -19.13953125 81.54851562 -19.7265625 80.80078125 C-34.69258703 62.55496837 -58.35797447 53.62205121 -81.26171875 51.3125 C-108.01004312 49.07648542 -135.07339583 56.61913578 -155 75 Z " fill="#FFFFFF" transform="translate(1650,142)"/>
<path d="M0 0 C1.89182126 1.79493553 3.76772895 3.60683742 5.625 5.4375 C6.46289062 6.2625 7.30078125 7.0875 8.1640625 7.9375 C38.66828286 39.70062469 51.05083672 84.4255814 50.85205078 127.50195312 C50.85148499 129.24813327 50.85180649 130.9943139 50.85293579 132.74049377 C50.85350376 137.42745627 50.84184068 142.11431397 50.82778788 146.80125237 C50.81518668 151.71926195 50.81410268 156.63727461 50.81173706 161.55529785 C50.80554965 170.8443961 50.78917634 180.13344663 50.76903808 189.42252398 C50.74659326 200.00793479 50.73566418 210.59334801 50.72564721 221.17877674 C50.70480733 242.93171696 50.6681658 264.68459184 50.625 286.4375 C27.195 286.4375 3.765 286.4375 -20.375 286.4375 C-20.705 267.2975 -21.035 248.1575 -21.375 228.4375 C-24.015 233.3875 -26.655 238.3375 -29.375 243.4375 C-50.15478327 272.6932475 -78.1926853 288.34904864 -113.375 294.4375 C-117.05961455 295.01547875 -120.6477339 295.32484938 -124.375 295.4375 C-125.03902832 295.45796387 -125.70305664 295.47842773 -126.38720703 295.49951172 C-171.23842699 296.6816066 -213.85684944 281.8285852 -246.78833008 251.00146484 C-280.00285107 218.93334541 -293.69988865 174.76795615 -294.625 129.4375 C-294.01964061 98.03448155 -287.89919676 67.01163986 -272.375 39.4375 C-272.02856445 38.80553711 -271.68212891 38.17357422 -271.32519531 37.52246094 C-266.33709613 28.47268904 -260.59542999 20.58151205 -253.6875 12.90576172 C-252.45783646 11.53016712 -251.25893135 10.12725048 -250.0625 8.72265625 C-244.71290931 2.52286275 -238.87893447 -2.60143859 -232.375 -7.5625 C-231.36050781 -8.35398438 -230.34601563 -9.14546875 -229.30078125 -9.9609375 C-204.54212134 -28.78752404 -174.13681342 -39.29643092 -143.375 -42.5625 C-142.37210938 -42.67335938 -141.36921875 -42.78421875 -140.3359375 -42.8984375 C-89.44556793 -47.66538351 -38.31028724 -34.64024684 0 0 Z M-183.375 51.4375 C-184.33535156 52.200625 -185.29570313 52.96375 -186.28515625 53.75 C-203.91605841 68.48433758 -212.66157577 92.5564614 -215.09375 114.7734375 C-217.2264641 142.55796286 -210.71936117 170.11588035 -192.625 191.75 C-175.8779497 210.92335726 -152.37184996 220.4829005 -127.375 222.4375 C-103.1840045 223.7846289 -78.34957813 217.47662635 -59.703125 201.546875 C-58.93484375 200.85078125 -58.1665625 200.1546875 -57.375 199.4375 C-56.54484375 198.70015625 -55.7146875 197.9628125 -54.859375 197.203125 C-37.91978141 181.30277028 -28.40609957 157.97787917 -27.24853516 134.91821289 C-26.43045485 106.15252942 -31.91223543 80.60749122 -51.375 58.4375 C-52.37273437 57.29667969 -52.37273437 57.29667969 -53.390625 56.1328125 C-70.24721351 38.09001961 -94.24754974 30.80607977 -118.26953125 29.25 C-142.04053304 28.67978107 -165.24796561 35.8950524 -183.375 51.4375 Z " fill="#FFFFFF" transform="translate(2063.375,163.5625)"/>
</svg>
