<svg width="422" height="416" viewBox="0 0 422 416" fill="none" xmlns="http://www.w3.org/2000/svg">
<rect width="422" height="416" rx="50" fill="#041226"/>
<path d="M277.764 359.687V355.801C296.456 336.554 310.798 313.883 320.792 287.789C330.971 261.509 336.06 234.304 336.06 206.174C336.06 177.304 330.693 149.266 319.959 122.062C309.41 94.8568 293.957 71.5383 273.6 52.1063V48.4976H312.742C332.544 66.264 347.627 89.1197 357.99 117.065C368.354 144.825 373.536 174.528 373.536 206.174C373.536 237.08 368.539 266.043 358.546 293.063C348.737 320.083 334.857 342.291 316.906 359.687H277.764Z" fill="white"/>
<path d="M162.462 359.687V355.801C181.154 336.554 195.497 313.883 205.49 287.789C215.669 261.509 220.758 234.304 220.758 206.174C220.758 177.304 215.392 149.266 204.658 122.062C194.109 94.8568 178.656 71.5383 158.298 52.1063V48.4976H197.44C217.242 66.264 232.325 89.1197 242.689 117.065C253.053 144.825 258.234 174.528 258.234 206.174C258.234 237.08 253.238 266.043 243.244 293.063C233.436 320.083 219.556 342.291 201.604 359.687H162.462Z" fill="white"/>
<path d="M47.1608 359.687V355.801C65.8526 336.554 80.1952 313.883 90.1888 287.789C100.367 261.509 105.457 234.304 105.457 206.174C105.457 177.304 100.09 149.266 89.356 122.062C78.8072 94.8568 63.3542 71.5383 42.9968 52.1063V48.4976H82.1384C101.941 66.264 117.023 89.1197 127.387 117.065C137.751 144.825 142.933 174.528 142.933 206.174C142.933 237.08 137.936 266.043 127.942 293.063C118.134 320.083 104.254 342.291 86.3024 359.687H47.1608Z" fill="white"/>
</svg>
